<svg height="15" viewBox="0 0 8 15" width="8" xmlns="http://www.w3.org/2000/svg"><path d="m755.010733 143.376777c.062007.412266-.054623.845934-.349848 1.177619l-5.353651 6.01484c-.032462.03647-.067027.071012-.103521.103447-.517104.459606-1.308884.412995-1.76849-.104109l-.080965-.091093c-.48734-.548308-.487048-1.374613.00068-1.922576l4.491327-5.046017-4.50715-5.063793c-.487728-.547963-.48802-1.374268-.00068-1.922576l.080965-.091093c.459606-.517104 1.251386-.563715 1.76849-.104109.036494.032435.07106.066977.103521.103447l5.353651 6.01484c.23677.266011.358668.597618.365671.931173z" fill="#c15663" transform="translate(-747 -136)"/></svg>