<?xml version="1.0" encoding="UTF-8"?>
<svg width="26px" height="19px" viewBox="0 0 26 19" version="1.1" xmlns="http://www.w3.org/2000/svg" xmlns:xlink="http://www.w3.org/1999/xlink">
    <!-- Generator: Sketch 52.4 (67378) - http://www.bohemiancoding.com/sketch -->
    <title>Combined Shape</title>
    <desc>Created with Sketch.</desc>
    <g id="Page-1" stroke="none" stroke-width="1" fill="none" fill-rule="evenodd">
        <g id="iPhone-8" transform="translate(-327.000000, -30.000000)" fill="#DE6555" fill-rule="nonzero">
            <path d="M340.480598,30.2477807 L348.150629,48.3886765 C348.235199,48.588697 348.141607,48.8194026 347.941586,48.9039719 C347.893135,48.9244575 347.841065,48.9350128 347.78846,48.9350128 L346.283454,48.9350128 C346.12441,48.9350128 345.981028,48.8392046 345.92017,48.6922657 L340.481713,35.5614359 C340.398614,35.3607998 340.168602,35.2655167 339.967966,35.3486151 C339.871609,35.3885238 339.795054,35.4650787 339.755145,35.5614359 L334.316688,48.6922657 C334.25583,48.8392046 334.112448,48.9350128 333.953404,48.9350128 L332.448398,48.9350128 C332.231234,48.9350128 332.055188,48.7589667 332.055188,48.5418028 C332.055188,48.4891982 332.065743,48.4371284 332.086229,48.3886765 L339.75626,30.2477807 C339.840829,30.0477602 340.071535,29.9541685 340.271555,30.0387378 C340.365775,30.0785743 340.440762,30.1535608 340.480598,30.2477807 Z M345.417766,30.2425117 L352.975205,48.4560916 C353.058433,48.6566737 352.963299,48.8867477 352.762717,48.9699761 C352.714947,48.9897972 352.663737,49 352.612019,49 L351.100894,49 C350.942772,49 350.800033,48.9052852 350.738587,48.7595912 L343.057087,30.5460112 C342.972698,30.3459149 343.066496,30.1152934 343.266593,30.0309036 C343.314953,30.0105077 343.366908,30 343.419394,30 L345.05458,30 C345.21353,30 345.356848,30.0956979 345.417766,30.2425117 Z M334.582234,30.2425117 C334.643152,30.0956979 334.78647,30 334.94542,30 L336.580606,30 C336.633092,30 336.685047,30.0105077 336.733407,30.0309036 C336.933504,30.1152934 337.027302,30.3459149 336.942913,30.5460112 L329.261413,48.7595912 C329.199967,48.9052852 329.057228,49 328.899106,49 L327.387981,49 C327.336263,49 327.285053,48.9897972 327.237283,48.9699761 C327.036701,48.8867477 326.941567,48.6566737 327.024795,48.4560916 L334.582234,30.2425117 Z" id="Combined-Shape"></path>
        </g>
    </g>
</svg>