<svg height="327" viewBox="0 0 428 327" width="428" xmlns="http://www.w3.org/2000/svg" xmlns:xlink="http://www.w3.org/1999/xlink"><defs><linearGradient id="a" x1="50%" x2="50%" y1="-29.096313%" y2="105.458156%"><stop offset="0" stop-color="#e1597a"/><stop offset="1" stop-color="#b14228"/></linearGradient><path id="b" d="m12.7656506 45.3887615c18.001491-32.8295254 41.4632459-45.40694909 78.3808573-45.2666048 24.6117411.09356286 47.6178001 12.8860128 69.0181771 38.3773498 16.933545-25.5848999 39.038545-38.3773498 66.314999-38.3773498 40.914681 0 69.527813 13.136759 85.804986 49.0939687 29.230917 64.5727766-21.475744 144.8198396-152.119985 240.7411886-135.6223037-94.918624-184.7553151-176.441475-147.3990344-244.5685525z"/><filter id="c" height="124.2%" width="121.9%" x="-10.9%" y="-8.6%"><feOffset dx="0" dy="10" in="SourceAlpha" result="shadowOffsetOuter1"/><feGaussianBlur in="shadowOffsetOuter1" result="shadowBlurOuter1" stdDeviation="10"/><feColorMatrix in="shadowBlurOuter1" type="matrix" values="0 0 0 0 0   0 0 0 0 0   0 0 0 0 0  0 0 0 0.5 0"/></filter><path id="d" d="m2.80787153 35.2002588c-.76676872-1.7698136-1.19411909-3.737873-1.19411909-5.8113281 0-4.7570605 2.24942831-8.9593536 5.68639588-11.4855976 9.74596398-8.63645221 17.76153468-14.0439886 24.04671218-16.22260919 6.4867402-2.24848793 17.0719271-1.03628339 31.7555606 3.6366136-8.7390226 6.62924239-15.6762058 11.85554739-20.8115494 15.67891499-3.583025 2.6676349-9.1161186 5.5537155-16.5992806 8.658242-.0060654.5762712-.0319266 1.144019-.077698 1.7012232 8.1980613 4.9319116 13.8061466 9.3621496 16.8242559 13.2907141 4.1147004 5.3559575 5.9383856 13.0634834 5.4710556 23.1225776-13.3911259-.0567316-22.7233031-1.9064637-27.9965315-5.5491965-5.2732284-3.6427327-10.97555726-12.6487167-17.10698647-27.0179518z"/><filter id="e" height="204.2%" width="213.8%" x="-56.9%" y="-37.2%"><feOffset dx="0" dy="10" in="SourceAlpha" result="shadowOffsetOuter1"/><feGaussianBlur in="shadowOffsetOuter1" result="shadowBlurOuter1" stdDeviation="10"/><feColorMatrix in="shadowBlurOuter1" type="matrix" values="0 0 0 0 0   0 0 0 0 0   0 0 0 0 0  0 0 0 0.5 0"/></filter></defs><g fill="none" transform="translate(19 9)"><use fill="#000" filter="url(#c)" xlink:href="#b"/><use fill="url(#a)" xlink:href="#b"/><g fill="#000"><path d="m4.61059952 65.1953165c66.98700198 11.7372493 118.72018948 17.6058739 155.19956248 17.6058739 36.479372 0 89.155975-5.8686246 158.029807-17.6058739 3.574839 9.5524624 3.741111 23.0018191.498815 40.3480705-3.242295 17.346251-11.370306 36.046751-24.384031 56.1015-51.722684 8.165043-96.437548 12.247564-134.144591 12.247564-37.707044 0-82.9949579-4.2101-135.8637411-12.630301-13.9428372-21.688395-21.70347298-40.570057-23.28190737-56.644985-1.5784344-16.0749287-.2630724-29.2155447 3.94608599-39.4218485z"/><g transform="translate(329.411765 87)"><use filter="url(#e)" xlink:href="#d"/><use xlink:href="#d"/></g></g></g></svg>