<svg height="153" viewBox="0 0 204 153" width="204" xmlns="http://www.w3.org/2000/svg" xmlns:xlink="http://www.w3.org/1999/xlink"><filter id="a" height="116.6%" width="112.2%" x="-6.1%" y="-8.3%"><feOffset dx="0" dy="2" in="SourceAlpha" result="shadowOffsetOuter1"/><feGaussianBlur in="shadowOffsetOuter1" result="shadowBlurOuter1" stdDeviation="2"/><feColorMatrix in="shadowBlurOuter1" result="shadowMatrixOuter1" type="matrix" values="0 0 0 0 0   0 0 0 0 0   0 0 0 0 0  0 0 0 0.5 0"/><feMerge><feMergeNode in="shadowMatrixOuter1"/><feMergeNode in="SourceGraphic"/></feMerge></filter><linearGradient id="b" x1="50%" x2="50%" y1="-29.096313%" y2="105.458156%"><stop offset="0" stop-color="#e1597a"/><stop offset="1" stop-color="#b14228"/></linearGradient><g fill="none" filter="url(#a)" transform="translate(4 2)"><path d="m6.38282532 22.6943808c9.00074548-16.41476274 20.73162298-22.7034746 39.19042868-22.63330245 12.3058704.04678143 23.8088999 6.4430064 34.5090884 19.18867495 8.4667726-12.79244998 19.5192725-19.18867495 33.1574996-19.18867495 20.45734 0 34.763907 6.56837952 42.902493 24.54698435 14.615459 32.2863882-10.737872 72.4099197-76.0599926 120.3705943-67.8111518-47.4593121-92.3776574-88.2207376-73.69951708-122.2842762z" fill="url(#b)"/><path d="m2.30529976 32.5976583c33.49350094 5.8686246 59.36009464 8.8029369 77.59978104 8.8029369 18.2396863 0 44.5779872-2.9343123 79.0149042-8.8029369 1.787419 4.7762312 1.870555 11.5009095.249407 20.174035-1.621148 8.6731256-5.685153 18.0233756-12.192015 28.05075-25.861342 4.0825215-48.2187743 6.1237822-67.0722962 6.1237822-18.853522 0-41.4974788-2.1050501-67.9318704-6.3151504-6.97141855-10.8441977-10.85173644-20.2850286-11.64095364-28.3224928s-.1315362-14.6077722 1.973043-19.710924z" fill="#000"/><path d="m1.40393576 17.6001294c-.38338436-.8849068-.59705954-1.8689365-.59705954-2.905664 0-2.3785303 1.12471415-4.4796768 2.84319794-5.74279885 4.87298199-4.3182261 8.88076734-7.0219943 12.02335614-8.1113046 3.24337-1.12424396 8.5359635-.51814169 15.8777803 1.8183068-4.3695114 3.31462122-7.8381029 5.92777371-10.4057747 7.83945745-1.7915126 1.3338175-4.5580593 2.7768578-8.2996403 4.3291211-.0030327.2881356-.0159633.5720094-.038849.8506116 4.0990306 2.4659558 6.9030732 4.6810748 8.4121279 6.645357 2.0573502 2.6779788 2.9691928 6.5317417 2.7355278 11.5612888-6.695563-.0283658-11.3616516-.9532319-13.99826576-2.7745982-2.63661421-1.8213664-5.48777862-6.3243584-8.55349322-13.508976z" fill="#000" transform="translate(164.705882 43.5)"/><path d="m0 0h80v145h-80v-58z" fill="url(#b)"/><path d="m0 41.5h80c5 .3333333 7.3333333 7.8944691 7 22.6834073s-2.6666667 22.3944691-7 22.8165927h-80z" fill="#000"/></g></svg>